<?xml version="1.0" encoding="utf-8"?>
<!-- Generator: Adobe Illustrator 13.0.0, SVG Export Plug-In . SVG Version: 6.00 Build 14948)  -->
<!DOCTYPE svg PUBLIC "-//W3C//DTD SVG 1.1//EN" "http://www.w3.org/Graphics/SVG/1.1/DTD/svg11.dtd">
<svg version="1.1" id="Layer_1" xmlns="http://www.w3.org/2000/svg" xmlns:xlink="http://www.w3.org/1999/xlink" x="0px" y="0px"
	 width="200px" height="200px" viewBox="0 0 200 200" enable-background="new 0 0 200 200" xml:space="preserve">
<g>
	<path fill="#818181" d="M91.514,101.713c3.626,0.336,7.252,1.699,10.712,3.34l9.045,4.281c0.394,0.188,0.379,0.623,0.377,1.061
		c-0.014,2.117-0.885,4.01-2.684,5.662c-0.322,0.299-0.664,0.566-1.061,0.379l-9.12-4.319
		C98.096,107.445,94.643,104.841,91.514,101.713L91.514,101.713z M117.48,116.131c-0.198-0.393-0.631-0.379-1.069-0.357
		c-2.306,0.117-4.077,1.215-5.588,2.785c-0.302,0.316-0.552,0.676-0.355,1.068c2.279,4.574,6.386,11.479,6.744,16.346
		c0.2,2.707-0.778,4.791-2.937,6.371c-0.771-0.771-1.541-1.543-2.311-2.312c-1.292-1.291,0.678-3.262,1.967-1.971l0.827,0.825
		c0.417-0.829,0.546-1.753,0.472-2.768c-0.153-2.072-1.02-4.347-1.938-6.315c-2.574-0.092-5.062,0.874-6.888,2.697
		c-1.801,1.807-2.702,4.177-2.702,6.545c0,1.091,0.19,2.186,0.575,3.221c0.621,1.688,1.425,2.617,2.681,3.873l27.571,27.572
		c1.802,1.801,4.173,2.702,6.543,2.702c2.365,0,4.742-0.901,6.544-2.702c1.801-1.807,2.7-4.175,2.7-6.543
		c0-2.371-0.899-4.742-2.7-6.543l-20.808-20.811c-0.461,2.65-1.558,5.088-3.328,7.266l18.91,18.835
		c1.688,1.683-0.856,4.231-2.553,2.547l-18.779-18.715c-0.361-0.358-1.266-1.267-1.188-1.812c3.836-3.27,5.53-7.481,5.159-12.529
		C124.541,128.814,120.459,122.113,117.48,116.131L117.48,116.131z M112.184,94.742c-0.994,0-1.808-0.812-1.808-1.803V82.886
		c0-0.993,0.813-1.804,1.808-1.804c0.991,0,1.801,0.811,1.801,1.804V92.94C113.982,93.931,113.173,94.742,112.184,94.742
		L112.184,94.742z M122.344,97.464c-0.855-0.495-1.154-1.604-0.66-2.464l5.028-8.706c0.493-0.857,1.601-1.155,2.463-0.66
		c0.857,0.496,1.155,1.604,0.656,2.464l-5.022,8.705C124.312,97.664,123.204,97.961,122.344,97.464L122.344,97.464z
		 M129.785,104.906c0.496,0.857,1.604,1.154,2.463,0.658l8.705-5.024c0.857-0.495,1.156-1.606,0.662-2.465
		c-0.494-0.859-1.605-1.155-2.463-0.66l-8.709,5.026C129.587,102.938,129.289,104.046,129.785,104.906L129.785,104.906z
		 M132.506,115.068c0-0.993,0.812-1.805,1.807-1.805h10.055c0.992,0,1.801,0.812,1.801,1.805c0,0.992-0.811,1.803-1.801,1.803
		h-10.055C133.316,116.871,132.506,116.061,132.506,115.068L132.506,115.068z M129.785,125.23c0.496-0.857,1.604-1.155,2.463-0.66
		l8.705,5.025c0.859,0.494,1.156,1.606,0.662,2.465c-0.494,0.855-1.605,1.154-2.463,0.66l-8.709-5.029
		C129.587,127.199,129.289,126.09,129.785,125.23L129.785,125.23z M102.018,97.464c-0.855,0.495-1.967,0.198-2.461-0.661
		l-5.026-8.705c-0.495-0.859-0.2-1.968,0.66-2.464c0.857-0.494,1.968-0.197,2.465,0.66L102.68,95
		C103.176,95.86,102.878,96.969,102.018,97.464L102.018,97.464z M66.094,79.1c-3.588-3.585-9.5-3.585-13.087,0
		c-3.585,3.589-3.585,9.501,0,13.089l20.445,20.442c0.704-2.542,1.94-4.917,3.647-6.965L58.318,86.952
		c-1.689-1.684,0.857-4.237,2.548-2.55l18.781,18.716c0.362,0.358,1.172,1.167,1.069,1.724c-3.792,3.155-5.959,7.889-5.959,12.819
		c0,4.288,1.629,8.581,4.888,11.838l17.528,17.53c3.366,3.369,7.979,5.115,12.729,4.865c-3.303-3.304-7.424-6.41-8.086-11.338
		l-16.614-16.615c-1.724-1.724-2.586-4.002-2.586-6.28c0-2.741,1.366-5.7,3.722-7.198l2.318,2.318c1.291,1.289-0.68,3.26-1.97,1.969
		l-0.93-0.93c-0.751,1.128-1.154,2.459-1.154,3.84c0,1.832,0.708,3.58,2.004,4.877l0.455,0.455c0.205,0.014,0.407,0.02,0.61,0.02
		c2.37,0,4.741-0.9,6.543-2.703c1.803-1.801,2.703-4.175,2.703-6.543c0-2.897-1.191-5.031-3.068-6.908L66.094,79.1z"/>
</g>
<text transform="matrix(1 0 0 1 62.7773 50.5)" fill="#818181" font-family="'Arial-BoldMT'" font-size="45">404</text>
</svg>
