<svg enable-background="new 0 0 200 200" height="200" viewBox="0 0 200 200" width="200" xmlns="http://www.w3.org/2000/svg"><g fill="#818181"><path d="m91.514 101.713c3.626.336 7.252 1.699 10.712 3.34l9.045 4.281c.394.188.379.623.377 1.061-.014 2.117-.885 4.01-2.684 5.662-.322.299-.664.566-1.061.379l-9.12-4.319c-.687-4.672-4.14-7.276-7.269-10.404zm25.966 14.418c-.198-.393-.631-.379-1.069-.357-2.306.117-4.077 1.215-5.588 2.785-.302.316-.552.676-.355 1.068 2.279 4.574 6.386 11.479 6.744 16.346.2 2.707-.778 4.791-2.937 6.371-.771-.771-1.541-1.543-2.311-2.312-1.292-1.291.678-3.262 1.967-1.971l.827.825c.417-.829.546-1.753.472-2.768-.153-2.072-1.02-4.347-1.938-6.315-2.574-.092-5.062.874-6.888 2.697-1.801 1.807-2.702 4.177-2.702 6.545 0 1.091.19 2.186.575 3.221.621 1.688 1.425 2.617 2.681 3.873l27.571 27.572c1.802 1.801 4.173 2.702 6.543 2.702 2.365 0 4.742-.901 6.544-2.702 1.801-1.807 2.7-4.175 2.7-6.543 0-2.371-.899-4.742-2.7-6.543l-20.808-20.811c-.461 2.65-1.558 5.088-3.328 7.266l18.91 18.835c1.688 1.683-.856 4.231-2.553 2.547l-18.779-18.715c-.361-.358-1.266-1.267-1.188-1.812 3.836-3.27 5.53-7.481 5.159-12.529-.488-6.592-4.57-13.293-7.549-19.275zm-5.296-21.389c-.994 0-1.808-.812-1.808-1.803v-10.053c0-.993.813-1.804 1.808-1.804.991 0 1.801.811 1.801 1.804v10.054c-.003.991-.812 1.802-1.801 1.802zm10.16 2.722c-.855-.495-1.154-1.604-.66-2.464l5.028-8.706c.493-.857 1.601-1.155 2.463-.66.857.496 1.155 1.604.656 2.464l-5.022 8.705c-.497.861-1.605 1.158-2.465.661zm7.441 7.442c.496.857 1.604 1.154 2.463.658l8.705-5.024c.857-.495 1.156-1.606.662-2.465s-1.605-1.155-2.463-.66l-8.709 5.026c-.856.497-1.154 1.605-.658 2.465zm2.721 10.162c0-.993.812-1.805 1.807-1.805h10.055c.992 0 1.801.812 1.801 1.805 0 .992-.811 1.803-1.801 1.803h-10.055c-.997 0-1.807-.81-1.807-1.803zm-2.721 10.162c.496-.857 1.604-1.155 2.463-.66l8.705 5.025c.859.494 1.156 1.606.662 2.465-.494.855-1.605 1.154-2.463.66l-8.709-5.029c-.856-.492-1.154-1.601-.658-2.461zm-27.767-27.766c-.855.495-1.967.198-2.461-.661l-5.026-8.705c-.495-.859-.2-1.968.66-2.464.857-.494 1.968-.197 2.465.66l5.024 8.706c.496.86.198 1.969-.662 2.464zm-35.924-18.364c-3.588-3.585-9.5-3.585-13.087 0-3.585 3.589-3.585 9.501 0 13.089l20.445 20.442c.704-2.542 1.94-4.917 3.647-6.965l-18.781-18.714c-1.689-1.684.857-4.237 2.548-2.55l18.781 18.716c.362.358 1.172 1.167 1.069 1.724-3.792 3.155-5.959 7.889-5.959 12.819 0 4.288 1.629 8.581 4.888 11.838l17.528 17.53c3.366 3.369 7.979 5.115 12.729 4.865-3.303-3.304-7.424-6.41-8.086-11.338l-16.614-16.615c-1.724-1.724-2.586-4.002-2.586-6.28 0-2.741 1.366-5.7 3.722-7.198l2.318 2.318c1.291 1.289-.68 3.26-1.97 1.969l-.93-.93c-.751 1.128-1.154 2.459-1.154 3.84 0 1.832.708 3.58 2.004 4.877l.455.455c.205.014.407.02.61.02 2.37 0 4.741-.9 6.543-2.703 1.803-1.801 2.703-4.175 2.703-6.543 0-2.897-1.191-5.031-3.068-6.908z"/><text font-family="'Arial-BoldMT'" font-size="45" transform="translate(62.7773 50.5)">404</text></g></svg>