<?xml version="1.0" encoding="utf-8"?>
<!-- Generator: Adobe Illustrator 23.0.3, SVG Export Plug-In . SVG Version: 6.00 Build 0)  -->
<svg version="1.1" id="Layer_1" xmlns="http://www.w3.org/2000/svg" xmlns:xlink="http://www.w3.org/1999/xlink" x="0px" y="0px"
	 viewBox="0 0 303 303" style="enable-background:new 0 0 303 303;" xml:space="preserve">
<style type="text/css">
	.st0{filter:url(#Adobe_OpacityMaskFilter);}
	.st1{fill-rule:evenodd;clip-rule:evenodd;fill:#FFFFFF;}
	.st2{mask:url(#mask-2_1_);fill-rule:evenodd;clip-rule:evenodd;fill:#E4ECED;}
	.st3{filter:url(#Adobe_OpacityMaskFilter_1_);}
	.st4{mask:url(#mask-4_1_);fill-rule:evenodd;clip-rule:evenodd;fill:#E4ECED;}
	.st5{filter:url(#Adobe_OpacityMaskFilter_2_);}
	.st6{mask:url(#mask-6_1_);fill-rule:evenodd;clip-rule:evenodd;fill:#E4ECED;}
</style>
<title>Air Icon</title>
<desc>Created with Sketch.</desc>
<g id="Clip-2">
</g>
<defs>
	<filter id="Adobe_OpacityMaskFilter" filterUnits="userSpaceOnUse" x="0.6" y="0.6" width="302.4" height="302.3">
		<feColorMatrix  type="matrix" values="1 0 0 0 0  0 1 0 0 0  0 0 1 0 0  0 0 0 1 0"/>
	</filter>
</defs>
<mask maskUnits="userSpaceOnUse" x="0.6" y="0.6" width="302.4" height="302.3" id="mask-2_1_">
	<g class="st0">
		<polygon id="path-1_1_" class="st1" points="303,0.6 0.6,0.6 0.6,302.9 303,302.9 		"/>
	</g>
</mask>
<path id="Fill-1" class="st2" d="M0.6,0.6v33.8c148.1,0,268.6,120.5,268.6,268.5H303C303,136.2,167.3,0.6,0.6,0.6"/>
<g id="Clip-5">
</g>
<defs>
	<filter id="Adobe_OpacityMaskFilter_1_" filterUnits="userSpaceOnUse" x="0.6" y="68.1" width="234.2" height="234.9">
		<feColorMatrix  type="matrix" values="1 0 0 0 0  0 1 0 0 0  0 0 1 0 0  0 0 0 1 0"/>
	</filter>
</defs>
<mask maskUnits="userSpaceOnUse" x="0.6" y="68.1" width="234.2" height="234.9" id="mask-4_1_">
	<g class="st3">
		<polygon id="path-3_1_" class="st1" points="234.8,68.1 0.6,68.1 0.6,303 234.8,303 		"/>
	</g>
</mask>
<path id="Fill-4" class="st4" d="M0.6,68.1v33.7c110.6,0,200.6,90.3,200.6,201.2h33.6C234.8,173.5,129.8,68.1,0.6,68.1"/>
<g id="Clip-8">
</g>
<defs>
	<filter id="Adobe_OpacityMaskFilter_2_" filterUnits="userSpaceOnUse" x="0.6" y="141.2" width="162.1" height="161.7">
		<feColorMatrix  type="matrix" values="1 0 0 0 0  0 1 0 0 0  0 0 1 0 0  0 0 0 1 0"/>
	</filter>
</defs>
<mask maskUnits="userSpaceOnUse" x="0.6" y="141.2" width="162.1" height="161.7" id="mask-6_1_">
	<g class="st5">
		<polygon id="path-5_1_" class="st1" points="162.7,141.2 0.6,141.2 0.6,302.9 162.7,302.9 		"/>
	</g>
</mask>
<path id="Fill-7" class="st6" d="M0.6,141.2V175c70.7,0,128.2,57.4,128.2,127.9h33.9C162.7,213.8,90,141.2,0.6,141.2"/>
</svg>
