<svg enable-background="new 0 0 303 303" viewBox="0 0 303 303" xmlns="http://www.w3.org/2000/svg" xmlns:xlink="http://www.w3.org/1999/xlink"><mask id="a" height="302.3" maskUnits="userSpaceOnUse" width="302.4" x=".6" y=".6"><path clip-rule="evenodd" d="m.6 302.9h302.4v-302.3h-302.4z" fill="#fff" fill-rule="evenodd"/></mask><mask id="b" height="234.9" maskUnits="userSpaceOnUse" width="234.2" x="68.8" y="68.1"><path clip-rule="evenodd" d="m68.8 303h234.2v-234.9h-234.2z" fill="#fff" fill-rule="evenodd"/></mask><mask id="c" height="161.7" maskUnits="userSpaceOnUse" width="162.1" x="140.9" y="141.2"><path clip-rule="evenodd" d="m140.9 302.9h162.1v-161.7h-162.1z" fill="#fff" fill-rule="evenodd"/></mask><g clip-rule="evenodd" fill="#fff" fill-rule="evenodd"><path d="m303 .6c-166.7 0-302.4 135.6-302.4 302.3h33.8c0-148 120.5-268.5 268.6-268.5z" mask="url(#a)"/><path d="m303 68.1c-129.1 0-234.2 105.4-234.2 234.9h33.6c0-110.9 90-201.2 200.6-201.2z" mask="url(#b)"/><path d="m303 141.2c-89.4 0-162.1 72.5-162.1 161.7h33.9c0-70.5 57.5-127.9 128.2-127.9z" mask="url(#c)"/></g></svg>