<svg enable-background="new 0 0 303 303" viewBox="0 0 303 303" xmlns="http://www.w3.org/2000/svg" xmlns:xlink="http://www.w3.org/1999/xlink"><mask id="a" height="302.3" maskUnits="userSpaceOnUse" width="302.4" x=".6" y=".6"><path clip-rule="evenodd" d="m303 .6h-302.4v302.3h302.4z" fill="#fff" fill-rule="evenodd"/></mask><mask id="b" height="234.9" maskUnits="userSpaceOnUse" width="234.2" x=".6" y="68.1"><path clip-rule="evenodd" d="m234.8 68.1h-234.2v234.9h234.2z" fill="#fff" fill-rule="evenodd"/></mask><mask id="c" height="161.7" maskUnits="userSpaceOnUse" width="162.1" x=".6" y="141.2"><path clip-rule="evenodd" d="m162.7 141.2h-162.1v161.7h162.1z" fill="#fff" fill-rule="evenodd"/></mask><g clip-rule="evenodd" fill="#e4eced" fill-rule="evenodd"><path d="m.6.6v33.8c148.1 0 268.6 120.5 268.6 268.5h33.8c0-166.7-135.7-302.3-302.4-302.3" mask="url(#a)"/><path d="m.6 68.1v33.7c110.6 0 200.6 90.3 200.6 201.2h33.6c0-129.5-105-234.9-234.2-234.9" mask="url(#b)"/><path d="m.6 141.2v33.8c70.7 0 128.2 57.4 128.2 127.9h33.9c0-89.1-72.7-161.7-162.1-161.7" mask="url(#c)"/></g></svg>