<?xml version="1.0" encoding="utf-8"?>
<!-- Generator: Adobe Illustrator 23.0.3, SVG Export Plug-In . SVG Version: 6.00 Build 0)  -->
<svg version="1.1" id="Layer_1" xmlns="http://www.w3.org/2000/svg" xmlns:xlink="http://www.w3.org/1999/xlink" x="0px" y="0px"
	 viewBox="0 0 303 303" style="enable-background:new 0 0 303 303;" xml:space="preserve">
<style type="text/css">
	.st0{filter:url(#Adobe_OpacityMaskFilter);}
	.st1{fill-rule:evenodd;clip-rule:evenodd;fill:#FFFFFF;}
	.st2{opacity:0.15;mask:url(#mask-2_1_);fill-rule:evenodd;clip-rule:evenodd;fill:#FFFFFF;}
	.st3{filter:url(#Adobe_OpacityMaskFilter_1_);}
	.st4{opacity:0.15;mask:url(#mask-4_1_);fill-rule:evenodd;clip-rule:evenodd;fill:#FFFFFF;}
	.st5{filter:url(#Adobe_OpacityMaskFilter_2_);}
	.st6{opacity:0.15;mask:url(#mask-6_1_);fill-rule:evenodd;clip-rule:evenodd;fill:#FFFFFF;}
</style>
<title>Air Icon</title>
<desc>Created with Sketch.</desc>
<g id="Clip-2">
</g>
<defs>
	<filter id="Adobe_OpacityMaskFilter" filterUnits="userSpaceOnUse" x="0.6" y="0.6" width="302.4" height="302.3">
		<feColorMatrix  type="matrix" values="1 0 0 0 0  0 1 0 0 0  0 0 1 0 0  0 0 0 1 0"/>
	</filter>
</defs>
<mask maskUnits="userSpaceOnUse" x="0.6" y="0.6" width="302.4" height="302.3" id="mask-2_1_">
	<g class="st0">
		<polygon id="path-1_1_" class="st1" points="0.6,302.9 303,302.9 303,0.6 0.6,0.6 		"/>
	</g>
</mask>
<path id="Fill-1" class="st2" d="M303,0.6C136.3,0.6,0.6,136.2,0.6,302.9h33.8C34.4,154.9,154.9,34.4,303,34.4V0.6"/>
<g id="Clip-5">
</g>
<defs>
	<filter id="Adobe_OpacityMaskFilter_1_" filterUnits="userSpaceOnUse" x="68.8" y="68.1" width="234.2" height="234.9">
		<feColorMatrix  type="matrix" values="1 0 0 0 0  0 1 0 0 0  0 0 1 0 0  0 0 0 1 0"/>
	</filter>
</defs>
<mask maskUnits="userSpaceOnUse" x="68.8" y="68.1" width="234.2" height="234.9" id="mask-4_1_">
	<g class="st3">
		<polygon id="path-3_1_" class="st1" points="68.8,303 303,303 303,68.1 68.8,68.1 		"/>
	</g>
</mask>
<path id="Fill-4" class="st4" d="M303,68.1C173.9,68.1,68.8,173.5,68.8,303h33.6c0-110.9,90-201.2,200.6-201.2V68.1"/>
<g id="Clip-8">
</g>
<defs>
	<filter id="Adobe_OpacityMaskFilter_2_" filterUnits="userSpaceOnUse" x="140.9" y="141.2" width="162.1" height="161.7">
		<feColorMatrix  type="matrix" values="1 0 0 0 0  0 1 0 0 0  0 0 1 0 0  0 0 0 1 0"/>
	</filter>
</defs>
<mask maskUnits="userSpaceOnUse" x="140.9" y="141.2" width="162.1" height="161.7" id="mask-6_1_">
	<g class="st5">
		<polygon id="path-5_1_" class="st1" points="140.9,302.9 303,302.9 303,141.2 140.9,141.2 		"/>
	</g>
</mask>
<path id="Fill-7" class="st6" d="M303,141.2c-89.4,0-162.1,72.5-162.1,161.7l33.9,0c0-70.5,57.5-127.9,128.2-127.9V141.2"/>
</svg>
