<?xml version="1.0" encoding="UTF-8"?>
<svg width="303px" height="303px" viewBox="0 0 303 303" version="1.1" xmlns="http://www.w3.org/2000/svg" xmlns:xlink="http://www.w3.org/1999/xlink">
    <!-- Generator: Sketch 55 (78076) - https://sketchapp.com -->
    <title>Air Icon</title>
    <desc>Created with Sketch.</desc>
    <defs>
        <polygon id="path-1" points="0.000146024096 0.608786506 302.388159 0.608786506 302.388159 302.933333 0.000146024096 302.933333"></polygon>
        <polygon id="path-3" points="0.186248447 0.0668395639 234.388416 0.0668395639 234.388416 235 0.186248447 235"></polygon>
        <polygon id="path-5" points="0.337110314 0.217955273 162.387471 0.217955273 162.387471 161.934495 0.337110314 161.934495"></polygon>
    </defs>
    <g id="Layouts" stroke="none" stroke-width="1" fill="none" fill-rule="evenodd">
        <g id="Desktop-—-About" transform="translate(-99.000000, -1457.000000)">
            <g id="Air-Icon" transform="translate(250.500000, 1608.500000) scale(-1, 1) translate(-250.500000, -1608.500000) translate(99.000000, 1457.000000)">
                <g id="Group-3">
                    <mask id="mask-2" fill="white">
                        <use xlink:href="#path-1"></use>
                    </mask>
                    <g id="Clip-2"></g>
                    <path d="M302.388305,0.608786506 L302.388305,34.424906 C154.301618,34.424906 33.8237075,154.877039 33.8237075,302.933333 L0.000146024096,302.933333 C0.000146024096,136.230945 135.650691,0.608786506 302.388305,0.608786506" id="Fill-1" fill="#E4ECED" mask="url(#mask-2)"></path>
                </g>
                <g id="Group-6" transform="translate(68.000000, 68.000000)">
                    <mask id="mask-4" fill="white">
                        <use xlink:href="#path-3"></use>
                    </mask>
                    <g id="Clip-5"></g>
                    <path d="M234.388562,0.0668395639 L234.388562,33.8065436 C123.796978,33.8065436 33.8219006,124.061917 33.8219006,235.00022 L0.186248447,235.00022 C0.186248447,105.457385 105.249494,0.0668395639 234.388562,0.0668395639" id="Fill-4" fill="#E4ECED" mask="url(#mask-4)"></path>
                </g>
                <g id="Group-9" transform="translate(140.000000, 141.000000)">
                    <mask id="mask-6" fill="white">
                        <use xlink:href="#path-5"></use>
                    </mask>
                    <g id="Clip-8"></g>
                    <path d="M162.387617,0.217955273 L162.387617,34.0097758 C91.7040924,34.0097758 34.1987157,91.39737 34.1987157,161.934495 L0.337110314,161.934495 C0.337110314,72.7639448 73.0321865,0.217955273 162.387617,0.217955273" id="Fill-7" fill="#E4ECED" mask="url(#mask-6)"></path>
                </g>
            </g>
        </g>
    </g>
</svg>