<?xml version="1.0" encoding="utf-8"?>
<!-- Generator: Adobe Illustrator 23.0.3, SVG Export Plug-In . SVG Version: 6.00 Build 0)  -->
<svg version="1.1" id="Layer_1" xmlns="http://www.w3.org/2000/svg" xmlns:xlink="http://www.w3.org/1999/xlink" x="0px" y="0px"
	 viewBox="0 0 303 303" style="enable-background:new 0 0 303 303;" xml:space="preserve">
<style type="text/css">
	.st0{filter:url(#Adobe_OpacityMaskFilter);}
	.st1{fill-rule:evenodd;clip-rule:evenodd;fill:#FFFFFF;}
	.st2{mask:url(#mask-2_1_);fill-rule:evenodd;clip-rule:evenodd;fill:#E4ECED;}
	.st3{filter:url(#Adobe_OpacityMaskFilter_1_);}
	.st4{mask:url(#mask-4_1_);fill-rule:evenodd;clip-rule:evenodd;fill:#E4ECED;}
	.st5{filter:url(#Adobe_OpacityMaskFilter_2_);}
	.st6{mask:url(#mask-6_1_);fill-rule:evenodd;clip-rule:evenodd;fill:#E4ECED;}
</style>
<title>Air Icon</title>
<desc>Created with Sketch.</desc>
<g id="Layouts">
	<g transform="translate(-99.000000, -1457.000000)">
		
			<g id="Air-Icon" transform="translate(250.500000, 1608.500000) scale(-1, 1) translate(-250.500000, -1608.500000) translate(99.000000, 1457.000000)">
			<g id="Group-3">
				<g id="Clip-2">
				</g>
				<defs>
					<filter id="Adobe_OpacityMaskFilter" filterUnits="userSpaceOnUse">
						<feColorMatrix  type="matrix" values="1 0 0 0 0  0 1 0 0 0  0 0 1 0 0  0 0 0 1 0"/>
					</filter>
				</defs>
				<mask maskUnits="userSpaceOnUse" id="mask-2_1_">
					<g class="st0">
						<polygon id="path-1_1_" class="st1" points="302.4,302.9 0,302.9 0,0.6 302.4,0.6 						"/>
					</g>
				</mask>
				<path id="Fill-1" class="st2" d="M0,0.6c166.7,0,302.4,135.6,302.4,302.3h-33.8C268.6,154.9,148.1,34.4,0,34.4L0,0.6"/>
			</g>
			<g id="Group-6" transform="translate(68.000000, 68.000000)">
				<g id="Clip-5">
				</g>
				<defs>
					<filter id="Adobe_OpacityMaskFilter_1_" filterUnits="userSpaceOnUse">
						<feColorMatrix  type="matrix" values="1 0 0 0 0  0 1 0 0 0  0 0 1 0 0  0 0 0 1 0"/>
					</filter>
				</defs>
				<mask maskUnits="userSpaceOnUse" id="mask-4_1_">
					<g class="st3">
						<polygon id="path-3_1_" class="st1" points="166.2,235 -68,235 -68,0.1 166.2,0.1 						"/>
					</g>
				</mask>
				<path id="Fill-4" class="st4" d="M-68,0.1C61.1,0.1,166.2,105.5,166.2,235h-33.6c0-110.9-90-201.2-200.6-201.2V0.1"/>
			</g>
			<g id="Group-9" transform="translate(140.000000, 141.000000)">
				<g id="Clip-8">
				</g>
				<defs>
					<filter id="Adobe_OpacityMaskFilter_2_" filterUnits="userSpaceOnUse">
						<feColorMatrix  type="matrix" values="1 0 0 0 0  0 1 0 0 0  0 0 1 0 0  0 0 0 1 0"/>
					</filter>
				</defs>
				<mask maskUnits="userSpaceOnUse" id="mask-6_1_">
					<g class="st5">
						<polygon id="path-5_1_" class="st1" points="22.1,161.9 -140,161.9 -140,0.2 22.1,0.2 						"/>
					</g>
				</mask>
				<path id="Fill-7" class="st6" d="M-140,0.2c89.4,0,162.1,72.5,162.1,161.7h-33.9C-11.8,91.4-69.3,34-140,34V0.2"/>
			</g>
		</g>
	</g>
</g>
</svg>
