<svg height="49" viewBox="0 0 159 49" width="159" xmlns="http://www.w3.org/2000/svg"><g fill="#23ae49"><g transform="translate(16 22)"><path d="m17.2654378 20.1857143h-9.81889402l-2.14170507 6.1714286h-5.2718894l9.35760369-25.55357147h5.9638249l9.3246544 25.55357147h-5.2718894zm-1.3509217-3.9857143-3.3937788-9.86785714h-.3294931l-3.39377876 9.86785714z"/><path d="m26.5571429 2.925c0-1.60714286 1.3838709-2.86071429 2.9654377-2.86071429 1.5815669 0 2.8665899 1.25357143 2.8665899 2.86071429 0 1.51071429-1.3179723 2.79642857-2.8665899 2.79642857-1.5815668.03214286-2.9654377-1.28571428-2.9654377-2.79642857zm.5601382 5.175h4.7776498v18.2571429h-4.7776498z"/><path d="m36.0465438 8.1h4.3493087l.4612904 2.6035714h.2965437c1.1532258-1.83214283 2.4382489-2.95714283 5.5684332-2.95714283h1.3509217v4.66071433c-.6589862-.0964286-1.3509217-.1607143-2.0099079-.1607143-4.1186636 0-5.2059907 2.9571428-5.2059907 5.5928571v8.5178572h-4.7776498z"/><path d="m70.4126728 19.2535714c0 4.5-3.1960829 7.0714286-8.4679723 7.0714286h-10.7085254v-25.55357143h10.774424c5.1730415 0 7.6442396 2.63571429 7.6442396 6.39642857 0 3.05357146-1.713364 4.59642856-3.624424 5.46428576v.225c1.8451613.675 4.3822581 2.475 4.3822581 6.3964285zm-14.3329493-8.0035714h5.2059908c2.240553 0 3.4596774-1.31785714 3.4596774-3.31071429 0-2.05714285-1.3509217-3.27857142-3.3608295-3.27857142h-5.2718894zm9.2587558 7.65c0-2.1535714-1.4168203-3.7607143-3.8550692-3.7607143h-5.4366359v7.3285714h5.4366359c2.5700461 0 3.8550692-1.4785714 3.8550692-3.5678571z"/><path d="m91.4672811 20.5714286c-.7578341 3.7607143-3.953917 6.1392857-8.7315668 6.1392857-5.5684332 0-9.6211982-3.6964286-9.6211982-9.3214286 0-6.0107143 4.2504609-9.67499999 9.4235023-9.67499999 4.6129033 0 8.8633641 2.86071429 8.8633641 9.38571429 0 .45-.0329493.8357143-.0658986 1.35h-13.4762673c.1976958 2.6357143 1.9440092 4.5321429 4.8764977 4.5321429 2.1087557 0 3.5914746-.8357143 4.1186636-2.4107143zm-13.5421659-5.2392857h8.9292627c-.0988479-2.25-1.8451613-3.8571429-4.3163595-3.8571429-2.570046-.0321429-4.2834101 1.6392857-4.6129032 3.8571429z"/><path d="m112.653687 22.8535714v3.5035715h-2.009908c-1.746314 0-3.130185-.5142858-3.789171-2.1857143-1.285023 1.575-3.229032 2.5714285-6.16152 2.5714285-3.8221203 0-6.6228115-1.7678571-6.6228115-5.3678571 0-3.5035714 2.7347926-5.2071429 6.1615205-5.5607143l5.832028-.5785714v-.7714286c0-1.9928571-1.317972-2.9892857-3.130184-2.9892857-2.009908 0-3.0642862 1.0928571-3.3608299 2.7321429h-4.7776498c.3624424-3.7928572 3.3608295-6.46071433 8.1714287-6.46071433 4.382258 0 7.940783 2.15357143 7.940783 7.03928573v6.6857143c0 .9642857.461291 1.3821428 1.350922 1.3821428zm-6.589862-4.4357143-4.184562.45c-1.713364.1928572-3.0313367.8678572-3.0313367 2.3142858 0 1.4464285 1.1532257 1.9607142 2.6688937 1.9607142 2.009908 0 4.579954-.9642857 4.579954-3.825z"/><path d="m115.35553 8.1h4.382258l.395392 2.1535714h.296544c1.021428-1.34999997 2.570046-2.50714283 5.140092-2.50714283 2.965437 0 4.25046 1.575 4.909447 2.89285713h.296543c1.021429-1.4142857 2.668894-2.89285713 5.832028-2.89285713 3.855069 0 6.326267 2.25 6.326267 6.68571433v11.9571428h-4.777649v-11.0571428c0-2.3464286-1.416821-3.5035715-3.229033-3.5035715-2.009907 0-3.393778 1.4464286-3.393778 3.7607143v10.8h-4.77765v-10.9285714c0-2.4107143-1.383871-3.6642857-3.196083-3.6642857-1.713364 0-3.393779 1.1892857-3.393779 3.7285714v10.8321429h-4.77765z"/></g><path d="m26 0v2.81045752c-12.745098 0-23.07712418 9.96732028-23.07712418 22.18954248h-2.92287582c0-13.7908497 11.6575163-25 26-25z"/><path d="m26 6v2.87162162c-9.4594146 0-17.12829707 7.70270268-17.12829707 17.12837838h-2.87170293c-.03368868-11.0135135 8.9527551-20 20-20z"/><path d="m26 12v2.9365854c-6.1121951 0-11.0634146 4.9512195-11.0634146 11.0634146h-2.9365854c.0341463-7.7170732 6.2829268-14 14-14z"/></g></svg>