<?xml version="1.0" encoding="utf-8"?>
<!-- Generator: Adobe Illustrator 23.1.1, SVG Export Plug-In . SVG Version: 6.00 Build 0)  -->
<svg version="1.1" id="Layer_1" xmlns="http://www.w3.org/2000/svg" xmlns:xlink="http://www.w3.org/1999/xlink" x="0px" y="0px"
	 viewBox="0 0 598 181" style="enable-background:new 0 0 598 181;" xml:space="preserve">
<style type="text/css">
	.st0{fill:#23AE49;}
</style>
<g>
	<g>
		<g>
			<g>
				<path class="st0" d="M158.4,143.8h-29.8l-6.5,19.2h-16l28.4-79.5h18.1l28.3,79.5h-16L158.4,143.8z M154.3,131.4L144,100.7h-1
					l-10.3,30.7C132.7,131.4,154.3,131.4,154.3,131.4z"/>
				<path class="st0" d="M186.6,90.1c0-5,4.2-8.9,9-8.9s8.7,3.9,8.7,8.9c0,4.7-4,8.7-8.7,8.7C190.8,98.9,186.6,94.8,186.6,90.1z
					 M188.3,106.2h14.5V163h-14.5V106.2z"/>
				<path class="st0" d="M215.4,106.2h13.2l1.4,8.1h0.9c3.5-5.7,7.4-9.2,16.9-9.2h4.1v14.5c-2-0.3-4.1-0.5-6.1-0.5
					c-12.5,0-15.8,9.2-15.8,17.4V163h-14.5L215.4,106.2z"/>
				<path class="st0" d="M319.7,140.9c0,14-9.7,22-25.7,22h-32.5V83.4h32.7c15.7,0,23.2,8.2,23.2,19.9c0,9.5-5.2,14.3-11,17v0.7
					C312,123.1,319.7,128.7,319.7,140.9z M276.2,116H292c6.8,0,10.5-4.1,10.5-10.3c0-6.4-4.1-10.2-10.2-10.2h-16L276.2,116z
					 M304.3,139.8c0-6.7-4.3-11.7-11.7-11.7h-16.5v22.8h16.5C300.4,150.9,304.3,146.3,304.3,139.8z"/>
				<path class="st0" d="M383.6,145c-2.3,11.7-12,19.1-26.5,19.1c-16.9,0-29.2-11.5-29.2-29c0-18.7,12.9-30.1,28.6-30.1
					c14,0,26.9,8.9,26.9,29.2c0,1.4-0.1,2.6-0.2,4.2h-40.9c0.6,8.2,5.9,14.1,14.8,14.1c6.4,0,10.9-2.6,12.5-7.5L383.6,145L383.6,145
					z M342.5,128.7h27.1c-0.3-7-5.6-12-13.1-12C348.7,116.6,343.5,121.8,342.5,128.7z"/>
				<path class="st0" d="M447.9,152.1V163h-6.1c-5.3,0-9.5-1.6-11.5-6.8c-3.9,4.9-9.8,8-18.7,8c-11.6,0-20.1-5.5-20.1-16.7
					c0-10.9,8.3-16.2,18.7-17.3l17.7-1.8V126c0-6.2-4-9.3-9.5-9.3c-6.1,0-9.3,3.4-10.2,8.5h-14.5c1.1-11.8,10.2-20.1,24.8-20.1
					c13.3,0,24.1,6.7,24.1,21.9v20.8c0,3,1.4,4.3,4.1,4.3L447.9,152.1L447.9,152.1z M427.9,138.3l-12.7,1.4
					c-5.2,0.6-9.2,2.7-9.2,7.2s3.5,6.1,8.1,6.1c6.1,0,13.9-3,13.9-11.9L427.9,138.3z"/>
				<path class="st0" d="M456.1,106.2h13.3l1.2,6.7h0.9c3.1-4.2,7.8-7.8,15.6-7.8c9,0,12.9,4.9,14.9,9h0.9c3.1-4.4,8.1-9,17.7-9
					c11.7,0,19.2,7,19.2,20.8v37.2h-14.5v-34.4c0-7.3-4.3-10.9-9.8-10.9c-6.1,0-10.3,4.5-10.3,11.7v33.6h-14.5v-34
					c0-7.5-4.2-11.4-9.7-11.4c-5.2,0-10.3,3.7-10.3,11.6V163h-14.5L456.1,106.2z"/>
			</g>
		</g>
		<g>
			<path class="st0" d="M134.7,16.9v8.6c-37.5,0-67.9,30.5-67.9,67.9h-8.6C58.2,51.2,92.5,16.9,134.7,16.9z"/>
		</g>
		<g>
			<path class="st0" d="M134.7,34.1v8.5c-28,0-50.7,22.8-50.7,50.7h-8.5C75.4,60.7,102,34.1,134.7,34.1z"/>
		</g>
		<g>
			<path class="st0" d="M134.7,52.4V61c-17.9,0-32.4,14.5-32.4,32.4h-8.6C93.8,70.8,112.1,52.4,134.7,52.4z"/>
		</g>
	</g>
</g>
</svg>
