<?xml version="1.0" encoding="UTF-8"?>
<svg width="158px" height="49px" viewBox="0 0 158 49" version="1.1" xmlns="http://www.w3.org/2000/svg" xmlns:xlink="http://www.w3.org/1999/xlink">
    <!-- Generator: Sketch 55 (78076) - https://sketchapp.com -->
    <title>AirBeam Logo</title>
    <desc>Created with Sketch.</desc>
    <defs>
        <polygon id="path-1" points="0.530344628 0.300763636 18.9588901 0.300763636 18.9588901 19.6363636 0.530344628 19.6363636"></polygon>
    </defs>
    <g id="Layouts" stroke="none" stroke-width="1" fill="none" fill-rule="evenodd">
        <g id="Desktop-—-AirBeam" transform="translate(-730.000000, -404.000000)">
            <g id="Body" transform="translate(250.000000, 200.000000)">
                <g id="AirBeam-Logo" transform="translate(480.000000, 204.000000)">
                    <g id="Group-22">
                        <path d="M24.8996901,22.4311418 L15.6305744,48.4597964 L20.8582851,48.4597964 L22.9716983,42.17616 L32.6873926,42.17616 L34.8008058,48.4597964 L40.0285165,48.4597964 L30.7953099,22.4311418 L24.8996901,22.4311418 Z M27.6810124,28.0831418 L27.9767727,28.0831418 L31.3515744,38.12256 L24.3062107,38.12256 L27.6810124,28.0831418 Z" id="Fill-1" fill="#23AE49"></path>
                        <g id="Group-21" transform="translate(0.000000, 0.395476)">
                            <path d="M42.6562785,29.4727418 L47.4028074,29.4727418 L47.4034603,48.0644509 L42.6569314,48.0644509 L42.6562785,29.4727418 Z M42.0993612,24.2298327 C42.0993612,22.5941236 43.4717413,21.3295418 45.0288901,21.3295418 C46.5866917,21.3295418 47.8839893,22.5941236 47.8839893,24.2298327 C47.8846421,25.7542691 46.5866917,27.0928145 45.029543,27.0928145 C43.4717413,27.0928145 42.100014,25.7542691 42.0993612,24.2298327 L42.0993612,24.2298327 Z" id="Fill-2" fill="#23AE49"></path>
                            <path d="M51.481819,29.4727418 L55.7830752,29.4727418 L56.2283479,32.1131782 L56.5247612,32.1131782 C57.674505,30.2536145 58.9352405,29.10096 62.0501909,29.10096 L63.3847033,29.10096 L63.3847033,33.8608145 C62.7174471,33.7488873 62.0501909,33.7115782 61.3822818,33.7115782 C57.303662,33.7115782 56.2283479,36.7237964 56.2290008,39.4008873 L56.2290008,48.0644509 L51.4824719,48.0644509 L51.481819,29.4727418 Z" id="Fill-4" fill="#23AE49"></path>
                            <path d="M80.517714,40.4792509 C80.517714,38.2852145 79.108119,36.6488509 76.6976397,36.6488509 L71.3217223,36.6488509 L71.3217223,44.1231055 L76.6982926,44.1231055 C79.2197636,44.1231055 80.517714,42.5986691 80.517714,40.4792509 L80.517714,40.4792509 Z M71.3217223,32.7078327 L76.4756562,32.7078327 C78.7000612,32.7078327 79.8870198,31.3692873 79.8870198,29.3244873 C79.8863669,27.2417236 78.5518545,25.9777964 76.5494331,25.9777964 L71.3210694,25.9777964 L71.3217223,32.7078327 Z M85.5234413,40.8510327 C85.5234413,45.4249964 82.3719289,48.0647782 77.1435653,48.0647782 L66.5386314,48.0647782 L66.5379785,22.0361236 L77.2166893,22.0361236 C82.3334083,22.0361236 84.7811025,24.7132145 84.7811025,28.5436145 C84.7811025,31.6664509 83.0757471,33.2281964 81.1843174,34.1209964 L81.1843174,34.3435418 C83.0385322,35.0131418 85.5234413,36.8353964 85.5234413,40.8510327 L85.5234413,40.8510327 Z" id="Fill-6" fill="#23AE49"></path>
                            <path d="M93.2825471,36.8351345 L102.144911,36.8351345 C102.033266,34.5298255 100.327911,32.8941164 97.8802165,32.8941164 C95.3221835,32.8941164 93.6161752,34.6044436 93.2825471,36.8351345 L93.2825471,36.8351345 Z M106.705365,42.1899709 C105.963679,46.0197164 102.775605,48.4362982 98.0662909,48.4362982 C92.541514,48.4362982 88.5366711,44.6811709 88.5360182,38.9545527 C88.5360182,32.8194982 92.7634975,29.1010255 97.8802165,29.1010255 C102.440671,29.1010255 106.667498,32.0013164 106.66815,38.6573891 C106.66815,39.1031345 106.631588,39.5122255 106.594374,40.0332436 L93.2453322,40.0332436 C93.4307537,42.7103345 95.1739769,44.6438618 98.0662909,44.6438618 C100.142489,44.6438618 101.625861,43.7883709 102.144911,42.1899709 L106.705365,42.1899709 Z" id="Fill-8" fill="#23AE49"></path>
                            <g id="Group-12" transform="translate(109.033058, 28.800000)">
                                <mask id="mask-2" fill="white">
                                    <use xlink:href="#path-1"></use>
                                </mask>
                                <g id="Clip-11"></g>
                                <path d="M12.432576,11.1956727 L8.27952645,11.6420727 C6.57351818,11.8279636 5.27622066,12.5342182 5.27622066,13.9846909 C5.27622066,15.4718182 6.42596446,15.9928364 7.90868347,15.9928364 C9.91110496,15.9928364 12.432576,15.0260727 12.432576,12.0884727 L12.432576,11.1956727 Z M18.9588901,15.6950182 L18.9588901,19.2649091 L16.9564686,19.2649091 C15.2138983,19.2649091 13.8415182,18.7438909 13.2114769,17.0335636 C11.9507413,18.6326182 10.0227496,19.6366909 7.09322066,19.6366909 C3.31101405,19.6366909 0.530344628,17.8517455 0.530344628,14.1705818 C0.530344628,10.6006909 3.2365843,8.85305455 6.64794793,8.51858182 L12.432576,7.9236 L12.432576,7.14272727 C12.432576,5.09792727 11.1346256,4.09385455 9.31762562,4.09385455 C7.31520413,4.09385455 6.27710496,5.2092 5.98003884,6.88287273 L1.23416281,6.88287273 C1.60500579,3.01516364 4.57109669,0.300763636 9.31762562,0.300763636 C13.6560967,0.300763636 17.1784521,2.4948 17.1784521,7.4772 L17.179105,14.2818545 C17.179105,15.2486182 17.6237248,15.6950182 18.5136174,15.6950182 L18.9588901,15.6950182 Z" id="Fill-10" fill="#23AE49" mask="url(#mask-2)"></path>
                            </g>
                            <path d="M130.663193,29.4727418 L135.001664,29.4727418 L135.409721,31.6667782 L135.706135,31.6667782 C136.707019,30.2909236 138.264821,29.10096 140.785639,29.10096 C143.715168,29.10096 145.013118,30.7000145 145.643812,32.03856 L145.940226,32.03856 C146.94111,30.5880873 148.572688,29.10096 151.724201,29.10096 C155.543622,29.10096 157.991317,31.4062691 157.991317,35.9056145 L157.991969,48.0644509 L153.24544,48.0644509 L153.244788,36.79776 C153.244788,34.4184873 151.835845,33.2285236 150.05606,33.2285236 C148.053639,33.2285236 146.681912,34.7156509 146.681912,37.0582691 L146.682564,48.0644509 L141.936036,48.0644509 L141.936036,36.9463418 C141.935383,34.4924509 140.563655,33.2285236 138.78387,33.2285236 C137.078515,33.2285236 135.409721,34.4551418 135.409721,37.02096 L135.410374,48.0644509 L130.663845,48.0644509 L130.663193,29.4727418 Z" id="Fill-13" fill="#23AE49"></path>
                            <path d="M24.9647835,0.2592 L24.9647835,3.05869091 C12.7387174,3.05869091 2.79255207,13.0300364 2.79255207,25.2870545 L0.000130578512,25.2870545 C0.000130578512,11.4866182 11.1991967,0.2592 24.9647835,0.2592" id="Fill-15" fill="#23AE49"></path>
                            <path d="M24.9647835,5.89477091 L24.9647835,8.67986182 C15.8308165,8.67986182 8.3989405,16.1298982 8.3989405,25.2869891 L5.62153554,25.2869891 C5.62153554,14.5943345 14.2991306,5.89477091 24.9647835,5.89477091" id="Fill-17" fill="#23AE49"></path>
                            <path d="M24.9647835,11.8898182 L24.9647835,14.6893091 C19.1357587,14.6893091 14.3938,19.4439273 14.3938,25.2870545 L11.6013785,25.2870545 C11.6013785,17.8998545 17.5955851,11.8898182 24.9647835,11.8898182" id="Fill-19" fill="#23AE49"></path>
                        </g>
                    </g>
                </g>
            </g>
        </g>
    </g>
</svg>