<svg height="49" viewBox="0 0 158 49" width="158" xmlns="http://www.w3.org/2000/svg" xmlns:xlink="http://www.w3.org/1999/xlink"><mask id="a" fill="#fff"><path d="m.53034463.30076364h18.42854547v19.33559996h-18.42854547z" fill="#fff" fill-rule="evenodd"/></mask><g fill="#23ae49" fill-rule="evenodd"><path d="m24.8996901 22.4311418-9.2691157 26.0286546h5.2277107l2.1134132-6.2836364h9.7156943l2.1134132 6.2836364h5.2277107l-9.2332066-26.0286546zm2.7813223 5.652h.2957603l3.3748017 10.0394182h-7.0453637z"/><g transform="translate(0 .395476)"><path d="m42.6562785 29.4727418h4.7465289l.0006529 18.5917091h-4.7465289zm-.5569173-5.2429091c0-1.6357091 1.3723801-2.9002909 2.9295289-2.9002909 1.5578016 0 2.8550992 1.2645818 2.8550992 2.9002909.0006528 1.5244364-1.2972976 2.8629818-2.8544463 2.8629818-1.5578017 0-2.929529-1.3385454-2.9301818-2.8629818z"/><path d="m51.481819 29.4727418h4.3012562l.4452727 2.6404364h.2964133c1.1497438-1.8595637 2.4104793-3.0122182 5.5254297-3.0122182h1.3345124v4.7598545c-.6672562-.1119272-1.3345124-.1492363-2.0024215-.1492363-4.0786198 0-5.1539339 3.0122182-5.153281 5.6893091v8.6635636h-4.7465289z"/><path d="m80.517714 40.4792509c0-2.1940364-1.409595-3.8304-3.8200743-3.8304h-5.3759174v7.4742546h5.3765703c2.521471 0 3.8194214-1.5244364 3.8194214-3.6438546zm-9.1959917-7.7714182h5.1539339c2.224405 0 3.4113636-1.3385454 3.4113636-3.3833454-.0006529-2.0827637-1.3351653-3.3466909-3.3375867-3.3466909h-5.2283637zm14.201719 8.1432c0 4.5739637-3.1515124 7.2137455-8.379876 7.2137455h-10.6049339l-.0006529-26.0286546h10.6787108c5.116719 0 7.5644132 2.6770909 7.5644132 6.5074909 0 3.1228364-1.7053554 4.6845819-3.5967851 5.5773819v.2225454c1.8542148.6696 4.3391239 2.4918546 4.3391239 6.5074909z"/><path d="m93.2825471 36.8351345h8.8623639c-.111645-2.305309-1.817-3.9410181-4.2646945-3.9410181-2.558033 0-4.2640413 1.7103272-4.5976694 3.9410181zm13.4228179 5.3548364c-.741686 3.8297455-3.92976 6.2463273-8.6390741 6.2463273-5.5247769 0-9.5296198-3.7551273-9.5302727-9.4817455 0-6.1350545 4.2274793-9.8535272 9.3441983-9.8535272 4.5604545 0 8.7872815 2.9002909 8.7879335 9.5563636 0 .4457454-.036562.8548364-.073776 1.3758545h-13.3490418c.1854215 2.6770909 1.9286447 4.6106182 4.8209587 4.6106182 2.0761981 0 3.5595701-.8554909 4.0786201-2.4538909z"/><path d="m12.432576 11.1956727-4.15304955.4464c-1.70600827.1858909-3.00330579.8921455-3.00330579 2.3426182 0 1.4871273 1.1497438 2.0081455 2.63246281 2.0081455 2.00242149 0 4.52389253-.9667637 4.52389253-3.9043637zm6.5263141 4.4993455v3.5698909h-2.0024215c-1.7425703 0-3.1149504-.5210182-3.7449917-2.2313455-1.2607356 1.5990546-3.1887273 2.6031273-6.11825624 2.6031273-3.78220661 0-6.56287603-1.7849454-6.56287603-5.4661091 0-3.5698909 2.70623967-5.31752725 6.1176033-5.65199998l5.78462807-.59498182v-.78087273c0-2.0448-1.2979504-3.04887272-3.11495038-3.04887272-2.00242149 0-3.04052066 1.11534545-3.33758678 2.78901818h-4.74587603c.37084298-3.86770909 3.33693388-6.58210909 8.08346281-6.58210909 4.33847108 0 7.86082648 2.19403636 7.86082648 7.17643636l.0006529 6.8046545c0 .9667637.4446198 1.4131637 1.3345124 1.4131637z" mask="url(#a)" transform="translate(109.033058 28.8)"/><path d="m130.663193 29.4727418h4.338471l.408057 2.1940364h.296414c1.000884-1.3758546 2.558686-2.5658182 5.079504-2.5658182 2.929529 0 4.227479 1.5990545 4.858173 2.9376h.296414c1.000884-1.4504727 2.632462-2.9376 5.783975-2.9376 3.819421 0 6.267116 2.3053091 6.267116 6.8046545l.000652 12.1588364h-4.746529l-.000652-11.2666909c0-2.3792727-1.408943-3.5692364-3.188728-3.5692364-2.002421 0-3.374148 1.4871273-3.374148 3.8297455l.000652 11.0061818h-4.746528v-11.1181091c-.000653-2.4538909-1.372381-3.7178182-3.152166-3.7178182-1.705355 0-3.374149 1.2266182-3.374149 3.7924364l.000653 11.0434909h-4.746529z"/><path d="m24.9647835.2592v2.79949091c-12.2260661 0-22.17223143 9.97134549-22.17223143 22.22836359h-2.79242149c0-13.8004363 11.19906612-25.0278545 24.96465292-25.0278545"/><path d="m24.9647835 5.89477091v2.78509091c-9.133967 0-16.565843 7.45003638-16.565843 16.60712728h-2.77740496c0-10.6926546 8.67759506-19.39221819 19.34324796-19.39221819"/><path d="m24.9647835 11.8898182v2.7994909c-5.8290248 0-10.5709835 4.7546182-10.5709835 10.5977454h-2.7924215c0-7.3872 5.9942066-13.3972363 13.363405-13.3972363"/></g></g></svg>