<?xml version="1.0" encoding="utf-8"?>
<!-- Generator: Adobe Illustrator 23.1.1, SVG Export Plug-In . SVG Version: 6.00 Build 0)  -->
<svg version="1.1" id="Layer_1" xmlns="http://www.w3.org/2000/svg" xmlns:xlink="http://www.w3.org/1999/xlink" x="0px" y="0px"
	 viewBox="0 0 598 170" style="enable-background:new 0 0 598 170;" xml:space="preserve">
<style type="text/css">
	.st0{fill:#23AE49;}
</style>
<g>
	<g>
		<g>
			<g>
				<path class="st0" d="M158.4,138.3h-29.8l-6.5,19.2h-16l28.4-79.5h18.1l28.3,79.5h-16L158.4,138.3z M154.3,125.9l-10.3-30.7H143
					l-10.3,30.7H154.3z"/>
				<path class="st0" d="M186.6,84.6c0-5,4.2-8.9,9-8.9s8.7,3.9,8.7,8.9c0,4.7-4,8.7-8.7,8.7C190.8,93.4,186.6,89.3,186.6,84.6z
					 M188.3,100.7h14.5l0,56.8h-14.5L188.3,100.7z"/>
				<path class="st0" d="M215.4,100.7h13.2l1.4,8.1h0.9c3.5-5.7,7.4-9.2,16.9-9.2h4.1l0,14.5c-2-0.3-4.1-0.5-6.1-0.5
					c-12.5,0-15.8,9.2-15.8,17.4l0,26.5h-14.5L215.4,100.7z"/>
				<path class="st0" d="M319.7,135.4c0,14-9.7,22-25.7,22h-32.5l0-79.5h32.7c15.7,0,23.2,8.2,23.2,19.9c0,9.5-5.2,14.3-11,17v0.7
					C312,117.6,319.7,123.2,319.7,135.4z M276.2,110.5h15.8c6.8,0,10.5-4.1,10.5-10.3c0-6.4-4.1-10.2-10.2-10.2h-16L276.2,110.5z
					 M304.3,134.3c0-6.7-4.3-11.7-11.7-11.7h-16.5l0,22.8h16.5C300.4,145.4,304.3,140.8,304.3,134.3z"/>
				<path class="st0" d="M383.6,139.5c-2.3,11.7-12,19.1-26.5,19.1c-16.9,0-29.2-11.5-29.2-29c0-18.7,12.9-30.1,28.6-30.1
					c14,0,26.9,8.9,26.9,29.2c0,1.4-0.1,2.6-0.2,4.2h-40.9c0.6,8.2,5.9,14.1,14.8,14.1c6.4,0,10.9-2.6,12.5-7.5H383.6z M342.5,123.2
					h27.1c-0.3-7-5.6-12-13.1-12C348.7,111.1,343.5,116.3,342.5,123.2z"/>
				<path class="st0" d="M447.9,146.6v10.9h-6.1c-5.3,0-9.5-1.6-11.5-6.8c-3.9,4.9-9.8,8-18.7,8c-11.6,0-20.1-5.5-20.1-16.7
					c0-10.9,8.3-16.2,18.7-17.3l17.7-1.8v-2.4c0-6.2-4-9.3-9.5-9.3c-6.1,0-9.3,3.4-10.2,8.5h-14.5c1.1-11.8,10.2-20.1,24.8-20.1
					c13.3,0,24.1,6.7,24.1,21.9l0,20.8c0,3,1.4,4.3,4.1,4.3H447.9z M427.9,132.8l-12.7,1.4c-5.2,0.6-9.2,2.7-9.2,7.2
					c0,4.5,3.5,6.1,8.1,6.1c6.1,0,13.9-3,13.9-11.9L427.9,132.8z"/>
				<path class="st0" d="M456.1,100.7h13.3l1.2,6.7h0.9c3.1-4.2,7.8-7.8,15.6-7.8c9,0,12.9,4.9,14.9,9h0.9c3.1-4.4,8.1-9,17.7-9
					c11.7,0,19.2,7,19.2,20.8l0,37.2h-14.5l0-34.4c0-7.3-4.3-10.9-9.8-10.9c-6.1,0-10.3,4.5-10.3,11.7l0,33.6h-14.5l0-34
					c0-7.5-4.2-11.4-9.7-11.4c-5.2,0-10.3,3.7-10.3,11.6l0,33.7h-14.5L456.1,100.7z"/>
			</g>
		</g>
		<g>
			<path class="st0" d="M134.7,11.4v8.6c-37.5,0-67.9,30.5-67.9,67.9h-8.6C58.2,45.7,92.5,11.4,134.7,11.4z"/>
		</g>
		<g>
			<path class="st0" d="M134.7,28.6v8.5c-28,0-50.7,22.8-50.7,50.7h-8.5C75.4,55.2,102,28.6,134.7,28.6z"/>
		</g>
		<g>
			<path class="st0" d="M134.7,46.9v8.6c-17.9,0-32.4,14.5-32.4,32.4h-8.6C93.8,65.3,112.1,46.9,134.7,46.9z"/>
		</g>
	</g>
</g>
</svg>
