<?xml version="1.0" encoding="UTF-8"?>
<svg width="159px" height="49px" viewBox="0 0 159 49" version="1.1" xmlns="http://www.w3.org/2000/svg" xmlns:xlink="http://www.w3.org/1999/xlink">
    <!-- Generator: Sketch 59.1 (86144) - https://sketch.com -->
    <title>AirBeam-Logo-Body</title>
    <desc>Created with Sketch.</desc>
    <g id="Page-1" stroke="none" stroke-width="1" fill="none" fill-rule="evenodd">
        <g id="AirBeam-Logo-Body" fill="#23AE49" fill-rule="nonzero">
            <g id="Group" transform="translate(16.000000, 22.000000)">
                <path d="M17.2654378,20.1857143 L7.44654378,20.1857143 L5.30483871,26.3571429 L0.0329493088,26.3571429 L9.390553,0.803571429 L15.3543779,0.803571429 L24.6790323,26.3571429 L19.4071429,26.3571429 L17.2654378,20.1857143 Z M15.9145161,16.2 L12.5207373,6.33214286 L12.1912442,6.33214286 L8.79746544,16.2 C8.79746544,16.2 15.9145161,16.2 15.9145161,16.2 Z" id="Shape"></path>
                <path d="M26.5571429,2.925 C26.5571429,1.31785714 27.9410138,0.0642857143 29.5225806,0.0642857143 C31.1041475,0.0642857143 32.3891705,1.31785714 32.3891705,2.925 C32.3891705,4.43571429 31.0711982,5.72142857 29.5225806,5.72142857 C27.9410138,5.75357143 26.5571429,4.43571429 26.5571429,2.925 Z M27.1172811,8.1 L31.8949309,8.1 L31.8949309,26.3571429 L27.1172811,26.3571429 L27.1172811,8.1 Z" id="Shape"></path>
                <path d="M36.0465438,8.1 L40.3958525,8.1 L40.8571429,10.7035714 L41.1536866,10.7035714 C42.3069124,8.87142857 43.5919355,7.74642857 46.7221198,7.74642857 L48.0730415,7.74642857 L48.0730415,12.4071429 C47.4140553,12.3107143 46.7221198,12.2464286 46.0631336,12.2464286 C41.94447,12.2464286 40.8571429,15.2035714 40.8571429,17.8392857 L40.8571429,26.3571429 L36.0794931,26.3571429 L36.0465438,8.1 Z" id="Path"></path>
                <path d="M70.4126728,19.2535714 C70.4126728,23.7535714 67.2165899,26.325 61.9447005,26.325 L51.2361751,26.325 L51.2361751,0.771428571 L62.0105991,0.771428571 C67.1836406,0.771428571 69.6548387,3.40714286 69.6548387,7.16785714 C69.6548387,10.2214286 67.9414747,11.7642857 66.0304147,12.6321429 L66.0304147,12.8571429 C67.875576,13.5321429 70.4126728,15.3321429 70.4126728,19.2535714 Z M56.0797235,11.25 L61.2857143,11.25 C63.5262673,11.25 64.7453917,9.93214286 64.7453917,7.93928571 C64.7453917,5.88214286 63.39447,4.66071429 61.3845622,4.66071429 L56.1126728,4.66071429 L56.0797235,11.25 Z M65.3384793,18.9 C65.3384793,16.7464286 63.921659,15.1392857 61.4834101,15.1392857 L56.0467742,15.1392857 L56.0467742,22.4678571 L61.4834101,22.4678571 C64.0534562,22.4678571 65.3384793,20.9892857 65.3384793,18.9 Z" id="Shape"></path>
                <path d="M91.4672811,20.5714286 C90.709447,24.3321429 87.5133641,26.7107143 82.7357143,26.7107143 C77.1672811,26.7107143 73.1145161,23.0142857 73.1145161,17.3892857 C73.1145161,11.3785714 77.364977,7.71428571 82.5380184,7.71428571 C87.1509217,7.71428571 91.4013825,10.575 91.4013825,17.1 C91.4013825,17.55 91.3684332,17.9357143 91.3354839,18.45 L77.8592166,18.45 C78.0569124,21.0857143 79.8032258,22.9821429 82.7357143,22.9821429 C84.84447,22.9821429 86.3271889,22.1464286 86.8543779,20.5714286 L91.4672811,20.5714286 L91.4672811,20.5714286 Z M77.9251152,15.3321429 L86.8543779,15.3321429 C86.75553,13.0821429 85.0092166,11.475 82.5380184,11.475 C79.9679724,11.4428571 78.2546083,13.1142857 77.9251152,15.3321429 Z" id="Shape"></path>
                <path d="M112.653687,22.8535714 L112.653687,26.3571429 L110.643779,26.3571429 C108.897465,26.3571429 107.513594,25.8428571 106.854608,24.1714286 C105.569585,25.7464286 103.625576,26.7428571 100.693088,26.7428571 C96.8709677,26.7428571 94.0702765,24.975 94.0702765,21.375 C94.0702765,17.8714286 96.8050691,16.1678571 100.231797,15.8142857 L106.063825,15.2357143 L106.063825,14.4642857 C106.063825,12.4714286 104.745853,11.475 102.933641,11.475 C100.923733,11.475 99.8693548,12.5678571 99.5728111,14.2071429 L94.7951613,14.2071429 C95.1576037,10.4142857 98.1559908,7.74642857 102.96659,7.74642857 C107.348848,7.74642857 110.907373,9.9 110.907373,14.7857143 L110.907373,21.4714286 C110.907373,22.4357143 111.368664,22.8535714 112.258295,22.8535714 L112.653687,22.8535714 L112.653687,22.8535714 Z M106.063825,18.4178571 L101.879263,18.8678571 C100.165899,19.0607143 98.8479263,19.7357143 98.8479263,21.1821429 C98.8479263,22.6285714 100.001152,23.1428571 101.51682,23.1428571 C103.526728,23.1428571 106.096774,22.1785714 106.096774,19.3178571 L106.063825,18.4178571 Z" id="Shape"></path>
                <path d="M115.35553,8.1 L119.737788,8.1 L120.13318,10.2535714 L120.429724,10.2535714 C121.451152,8.90357143 122.99977,7.74642857 125.569816,7.74642857 C128.535253,7.74642857 129.820276,9.32142857 130.479263,10.6392857 L130.775806,10.6392857 C131.797235,9.225 133.4447,7.74642857 136.607834,7.74642857 C140.462903,7.74642857 142.934101,9.99642857 142.934101,14.4321429 L142.934101,26.3892857 L138.156452,26.3892857 L138.156452,15.3321429 C138.156452,12.9857143 136.739631,11.8285714 134.927419,11.8285714 C132.917512,11.8285714 131.533641,13.275 131.533641,15.5892857 L131.533641,26.3892857 L126.755991,26.3892857 L126.755991,15.4607143 C126.755991,13.05 125.37212,11.7964286 123.559908,11.7964286 C121.846544,11.7964286 120.166129,12.9857143 120.166129,15.525 L120.166129,26.3571429 L115.388479,26.3571429 L115.35553,8.1 Z" id="Path"></path>
            </g>
            <path d="M26,0 L26,2.81045752 C13.254902,2.81045752 2.92287582,12.7777778 2.92287582,25 L0,25 C0,11.2091503 11.6575163,0 26,0 Z" id="Path"></path>
            <path d="M26,6 L26,8.87162162 C16.5405854,8.87162162 8.87170293,16.5743243 8.87170293,26 L6,26 C5.96631132,14.9864865 14.9527551,6 26,6 Z" id="Path"></path>
            <path d="M26,12 L26,14.9365854 C19.8878049,14.9365854 14.9365854,19.8878049 14.9365854,26 L12,26 C12.0341463,18.2829268 18.2829268,12 26,12 Z" id="Path"></path>
        </g>
    </g>
</svg>