<svg height="56" viewBox="0 0 196 56" width="196" xmlns="http://www.w3.org/2000/svg" xmlns:xlink="http://www.w3.org/1999/xlink"><mask id="a" fill="#fff"><path d="m.12289449.31903299h18.56945211v28.63006881h-18.56945211z" fill="#fff" fill-rule="evenodd"/></mask><mask id="b" fill="#fff"><path d="m0 .02240271h25.0554045v25.15781349h-25.0554045z" fill="#fff" fill-rule="evenodd"/></mask><g fill="#00b5ef" fill-rule="evenodd" transform="translate(.414062)"><path d="m42.6327892 29.3872869h4.763431l.0009829 18.6883325h-4.7637586zm-.5586113-5.2700643c0-1.6445101 1.3770342-2.9153128 2.940163-2.9153128 1.5628011 0 2.865463 1.2708027 2.865463 2.9153128 0 1.532661-1.3023343 2.8781394-2.865463 2.8781394-1.5628012 0-2.940163-1.3454784-2.940163-2.8781394z"/><path d="m51.4904971 29.3872869h4.3168695l.4468891 2.6537834h.2974892c1.1535896-1.8688662 2.4189016-3.0274908 5.5448315-3.0274908h1.3396843l.0003276 4.7841789c-.670006-.112178-1.3396843-.1496804-2.0096902-.1496804-4.0937527 0-5.1726424 3.0274908-5.1726424 5.7187765l.0006552 8.7087649h-4.7637586z"/><path d="m78.7005358 48.4491295c-7.9640608 0-12.8021917-5.6434428-12.8025193-13.3432635-.0003277-7.9235187 5.1352924-13.5676195 12.8012088-13.5676195 5.8799983 0 10.569057 3.1396688 11.4625075 8.933121h-5.2843647c-.8187505-2.6912857-3.0145353-4.3729692-6.1778152-4.3729692-4.6517087 0-7.7776386 3.9242571-7.777311 9.0074677 0 5.2700644 3.3493745 8.7834406 7.7779663 8.7834406 3.3867244 0 5.7682761-1.6820124 6.5870266-4.2232888h5.2840371c-.8554453 5.6062695-5.8419931 8.7831117-11.8707361 8.7831117"/><path d="m105.311468 39.9646877-4.168125.4487121c-1.7118733.1868537-3.0142076.8970952-3.0142076 2.3544227 0 1.4951587 1.1535897 2.0185465 2.6423466 2.0185465 2.009362 0 4.539986-.971771 4.539986-3.9242571zm6.549677 4.5226495.000327 3.588052h-2.00969c-1.748896 0-3.126257-.5233878-3.758586-2.2425736-1.265639 1.6073367-3.20063 2.616281-6.1401373 2.616281-3.7959358 0-6.5870266-1.7938615-6.5873542-5.4940915 0-3.5880519 2.7163908-5.34474 6.1398099-5.6812741l5.8056256-.5980635v-.7849172c0-2.0557198-1.302661-3.0646641-3.126257-3.0646641-2.00969 0-3.0512301 1.1211223-3.3493745 2.8031347h-4.7631034c.3721891-3.8870837 3.3490468-6.6155427 8.1124779-6.6155427 4.353892 0 7.889361 2.2050712 7.889688 7.2136062l.000328 6.8398988c0 .9717709.446561 1.420154 1.339684 1.420154z"/><path d="m113.798527 42.0952807h4.577336c.260795 2.0185465 1.749223 2.8031347 3.647191 2.8031347 1.451407 0 2.716719-.5605611 2.716719-1.9060395 0-1.420483-1.26564-2.0182175-3.27533-2.5416053l-1.748896-.4483832c-2.493601-.5983924-5.322042-1.6073367-5.322042-5.2703933-.000328-3.7374033 3.275002-5.7184475 6.959216-5.7184475 5.023898 0 7.331077 2.6537833 7.591871 5.7184475h-4.577336c-.186422-1.3454784-1.22829-2.1678979-2.977513-2.1678979-1.451406 0-2.455924.7105705-2.455924 1.9063685 0 1.308305 1.265312 1.6445101 3.051558 2.1303955l1.749223.4487121c3.237652.8220906 5.544832 2.3172493 5.545159 5.8306256 0 3.8499103-3.274674 5.5687671-7.219355 5.5687671-5.247342 0-8.001083-2.504103-8.261877-6.3536843"/><path d="m135.049739 42.9922443-.000328-9.8298872h-3.981702l-.000328-3.7749057h1.265312c2.270157 0 3.162952-.8220906 3.162952-2.8406371l-.000327-2.2429025h4.317197l.000327 5.0835396h4.875154v3.7749057h-4.875154l.000328 9.1943214c0 1.0467756.260467 2.3175782 2.493274 2.3175782.558611 0 1.26564-.112178 1.823596-.2618583l.000327 3.6258832c-.81875.1865247-1.93499.4108808-3.275002.4108808-5.209992 0-5.805298-3.4011982-5.805626-5.4569181"/><path d="m147.331751 29.3872869h4.763431l.000655 18.6883325h-4.763431zm-.558612-5.2700643c0-1.6445101 1.377035-2.9153128 2.940163-2.9153128 1.562801 0 2.865463 1.2708027 2.865463 2.9153128 0 1.532661-1.302334 2.8781394-2.865463 2.8781394-1.563128 0-2.939835-1.3454784-2.940163-2.8781394z"/><path d="m156.189327 29.3872869h4.35422l.409211 2.2050713h.297817c1.11624-1.4576564 2.679369-2.5787787 5.470787-2.5787787 4.428264 0 7.256705 2.8406371 7.256705 7.736994l.000655 11.3250459h-4.763431l-.000327-10.353275c-.000328-3.0646641-1.749224-4.5598228-3.982031-4.5598228-2.270157 0-4.279847 1.4573274-4.279847 4.7841789l.000328 10.1289189h-4.763431z"/><path d="m12.3287973 8.42940546c0-1.71918579-1.2282896-2.95281509-3.27500212-2.95281509-2.08406249 0-3.38639677 1.2336293-3.38639677 2.95281509 0 1.64483904 1.30266191 2.87813944 3.3867244 2.87813944 2.04671249 0 3.27467449-1.2333004 3.27467449-2.87813944m-1.785918 12.33431924h-3.38639679l-2.4562516 2.0928932c.40953908 1.308305 1.78624566 2.504432 4.50296412 2.504432 2.27015707 0 4.16812497-.8220906 4.16812497-2.5416054 0-1.5698344-1.4514065-2.0557198-2.8284407-2.0557198m5.1349648-15.77269083c.7814006 1.00894429 1.1909397 2.20507126 1.1909397 3.51337625 0 3.96175938-3.3863968 6.27900868-7.81466099 6.27900868-1.15391732 0-2.19545712-.1493514-3.12592991-.4112098-.59563365.2993607-.89345047.7105705-.89345047 1.2333003 0 1.083949 1.19093966 1.420812 2.45625161 1.420812h3.64719126c4.4656142 0 6.7731212 2.167569 6.7731212 5.5312648.0003276 3.9992618-3.3490468 6.3915157-8.74480617 6.3915157-5.9173483 0-8.67108909-2.9528151-9.04360584-6.2793376l2.82811309-2.504103c-1.30266192-.7099126-2.12108482-1.9432129-2.12141245-3.4383716 0-1.7566881 1.15358969-2.9156417 2.49327394-3.6630566-1.37670658-1.083949-2.19545712-2.616281-2.19578475-4.55982288 0-3.6630566 2.93983535-6.46619134 7.70326633-6.46619134 1.63717345 0 3.12592995.33653407 4.31686955.93426859 1.1909397-.59773452 2.455924-1.6445101 3.2003022-2.65345438l2.344857 2.61628102c-.5956336.63523684-1.7492233 1.45732741-3.0145353 2.05571986" mask="url(#a)" transform="translate(176.920884 26.975361)"/><path d="m25.0554045.02240271v2.81399068c-12.2701185 0-22.2527156 10.02332031-22.2527156 22.34382281h-2.80288548c0-13.8722437 11.24004588-25.15781349 25.05560108-25.15781349" mask="url(#b)"/><path d="m25.0554045 5.68716266v2.7995161c-9.1671228 0-16.6256486 7.48862334-16.6256486 16.69347174h-2.78814207c0-10.7483654 8.70909427-19.49298784 19.41379067-19.49298784"/><path d="m25.0554045 11.7132938v2.8139906c-5.8501839 0-10.6096833 4.7789155-10.6096833 10.6529647h-2.8025578c0-7.4257904 6.0166205-13.4669553 13.4122411-13.4669553"/><path d="m31.108844 37.6741437-3.4576532-10.0283659h-.3043886l-3.4569842 10.0283659zm1.3677415 4.0488106h-9.9541745l-2.1655071 6.2770457h-5.3569039l9.4972572-26h6.0409419l9.4618009 26h-5.3572384z"/></g></svg>