<?xml version="1.0" encoding="UTF-8"?>
<svg width="196px" height="56px" viewBox="0 0 196 56" version="1.1" xmlns="http://www.w3.org/2000/svg" xmlns:xlink="http://www.w3.org/1999/xlink">
    <!-- Generator: Sketch 55 (78076) - https://sketchapp.com -->
    <title>AirCasting Logo Copy</title>
    <desc>Created with Sketch.</desc>
    <defs>
        <polygon id="path-1" points="0.122894488 0.319032986 18.6923466 0.319032986 18.6923466 28.9491018 0.122894488 28.9491018"></polygon>
        <polygon id="path-3" points="0 0.0224027081 25.0554045 0.0224027081 25.0554045 25.1802162 0 25.1802162"></polygon>
    </defs>
    <g id="Layouts" stroke="none" stroke-width="1" fill="none" fill-rule="evenodd">
        <g id="Desktop-—-AirCasting" transform="translate(-890.000000, -422.000000)">
            <g id="AirCasting-Feature" transform="translate(250.000000, 200.000000)">
                <g id="AirCasting-Logo-Copy" transform="translate(640.000000, 222.000000)">
                    <g id="Group-28" transform="translate(0.414062, 0.000000)">
                        <path d="M42.6327892,29.3872869 L47.3962202,29.3872869 L47.3972031,48.0756194 L42.6334445,48.0756194 L42.6327892,29.3872869 Z M42.0741779,24.1172226 C42.0741779,22.4727125 43.4512121,21.2019098 45.0143409,21.2019098 C46.577142,21.2019098 47.8798039,22.4727125 47.8798039,24.1172226 C47.8798039,25.6498836 46.5774696,26.995362 45.0143409,26.995362 C43.4515397,26.995362 42.0741779,25.6498836 42.0741779,24.1172226 L42.0741779,24.1172226 Z" id="Fill-2" fill="#00B5EF"></path>
                        <path d="M51.4904971,29.3872869 L55.8073666,29.3872869 L56.2542557,32.0410703 L56.5517449,32.0410703 C57.7053345,30.1722041 58.9706465,29.0135795 62.0965764,29.0135795 L63.4362607,29.0135795 L63.4365883,33.7977584 C62.7665823,33.6855804 62.096904,33.648078 61.4268981,33.648078 C57.3331454,33.648078 56.2542557,36.6755688 56.2542557,39.3668545 L56.2549109,48.0756194 L51.4911523,48.0756194 L51.4904971,29.3872869 Z" id="Fill-4" fill="#00B5EF"></path>
                        <path d="M78.7005358,48.4491295 C70.736475,48.4491295 65.8983441,42.8056867 65.8980165,35.105866 C65.8976888,27.1823473 71.0333089,21.5382465 78.6992253,21.5382465 C84.5792236,21.5382465 89.2682823,24.6779153 90.1617328,30.4713675 L84.8773681,30.4713675 C84.0586176,27.7800818 81.8628328,26.0983983 78.6995529,26.0983983 C74.0478442,26.0983983 70.9219143,30.0226554 70.9222419,35.105866 C70.9222419,40.3759304 74.2716164,43.8893066 78.7002082,43.8893066 C82.0869326,43.8893066 84.4684843,42.2072942 85.2872348,39.6660178 L90.5712719,39.6660178 C89.7158266,45.2722873 84.7292788,48.4491295 78.7005358,48.4491295" id="Fill-6" fill="#00B5EF"></path>
                        <path d="M105.311468,39.9646877 L101.143343,40.4133998 C99.4314697,40.6002535 98.1291354,41.310495 98.1291354,42.7678225 C98.1291354,44.2629812 99.2827251,44.786369 100.771482,44.786369 C102.780844,44.786369 105.311468,43.814598 105.311468,40.8621119 L105.311468,39.9646877 Z M111.861145,44.4873372 L111.861472,48.0753892 L109.851782,48.0753892 C108.102886,48.0753892 106.725525,47.5520014 106.093196,45.8328156 C104.827557,47.4401523 102.892566,48.4490966 99.9530587,48.4490966 C96.1571229,48.4490966 93.3660321,46.6552351 93.3657045,42.9550051 C93.3657045,39.3669532 96.0820953,37.6102651 99.5055144,37.273731 L105.31114,36.6756675 L105.31114,35.8907503 C105.31114,33.8350305 104.008479,32.8260862 102.184883,32.8260862 C100.175193,32.8260862 99.1336529,33.9472085 98.8355085,35.6292209 L94.0724051,35.6292209 C94.4445942,31.7421372 97.4214519,29.0136782 102.184883,29.0136782 C106.538775,29.0136782 110.074244,31.2187494 110.074571,36.2272844 L110.074899,43.0671832 C110.074899,44.0389541 110.52146,44.4873372 111.414583,44.4873372 L111.861145,44.4873372 Z" id="Fill-8" fill="#00B5EF"></path>
                        <path d="M113.798527,42.0952807 L118.375863,42.0952807 C118.636658,44.1138272 120.125086,44.8984154 122.023054,44.8984154 C123.474461,44.8984154 124.739773,44.3378543 124.739773,42.9923759 C124.739773,41.5718929 123.474133,40.9741584 121.464443,40.4507706 L119.715547,40.0023874 C117.221946,39.403995 114.393505,38.3950507 114.393505,34.7319941 C114.393177,30.9945908 117.668507,29.0135466 121.352721,29.0135466 C126.376619,29.0135466 128.683798,31.6673299 128.944592,34.7319941 L124.367256,34.7319941 C124.180834,33.3865157 123.138966,32.5640962 121.389743,32.5640962 C119.938337,32.5640962 118.933819,33.2746667 118.933819,34.4704647 C118.933819,35.7787697 120.199131,36.1149748 121.985377,36.6008602 L123.7346,37.0495723 C126.972252,37.8716629 129.279432,39.3668216 129.279759,42.8801979 C129.279759,46.7301082 126.005085,48.448965 122.060404,48.448965 C116.813062,48.448965 114.059321,45.944862 113.798527,42.0952807" id="Fill-10" fill="#00B5EF"></path>
                        <path d="M135.049739,42.9922443 L135.049411,33.1623571 L131.067709,33.1623571 L131.067381,29.3874514 L132.332693,29.3874514 C134.60285,29.3874514 135.495645,28.5653608 135.495645,26.5468143 L135.495318,24.3039118 L139.812515,24.3039118 L139.812842,29.3874514 L144.687996,29.3874514 L144.687996,33.1623571 L139.812842,33.1623571 L139.81317,42.3566785 C139.81317,43.4034541 140.073637,44.6742567 142.306444,44.6742567 C142.865055,44.6742567 143.572084,44.5620787 144.13004,44.4123984 L144.130367,48.0382816 C143.311617,48.2248063 142.195377,48.4491624 140.855365,48.4491624 C135.645373,48.4491624 135.050067,45.0479642 135.049739,42.9922443" id="Fill-12" fill="#00B5EF"></path>
                        <path d="M147.331751,29.3872869 L152.095182,29.3872869 L152.095837,48.0756194 L147.332406,48.0756194 L147.331751,29.3872869 Z M146.773139,24.1172226 C146.773139,22.4727125 148.150174,21.2019098 149.713302,21.2019098 C151.276103,21.2019098 152.578765,22.4727125 152.578765,24.1172226 C152.578765,25.6498836 151.276431,26.995362 149.713302,26.995362 C148.150174,26.995362 146.773467,25.6498836 146.773139,24.1172226 L146.773139,24.1172226 Z" id="Fill-14" fill="#00B5EF"></path>
                        <path d="M156.189327,29.3872869 L160.543547,29.3872869 L160.952758,31.5923582 L161.250575,31.5923582 C162.366815,30.1347018 163.929944,29.0135795 166.721362,29.0135795 C171.149626,29.0135795 173.978067,31.8542166 173.978067,36.7505735 L173.978722,48.0756194 L169.215291,48.0756194 L169.214964,37.7223444 C169.214636,34.6576803 167.46574,33.1625216 165.232933,33.1625216 C162.962776,33.1625216 160.953086,34.619849 160.953086,37.9467005 L160.953414,48.0756194 L156.189983,48.0756194 L156.189327,29.3872869 Z" id="Fill-16" fill="#00B5EF"></path>
                        <g id="Group-20" transform="translate(176.920884, 26.975361)">
                            <mask id="mask-2" fill="white">
                                <use xlink:href="#path-1"></use>
                            </mask>
                            <g id="Clip-19"></g>
                            <path d="M12.3287973,8.42940546 C12.3287973,6.71021967 11.1005077,5.47659037 9.05379518,5.47659037 C6.96973269,5.47659037 5.66739841,6.71021967 5.66739841,8.42940546 C5.66739841,10.0742445 6.97006032,11.3075449 9.05412281,11.3075449 C11.1008353,11.3075449 12.3287973,10.0742445 12.3287973,8.42940546 M10.5428793,20.7637247 L7.15648251,20.7637247 L4.70023091,22.8566179 C5.10976999,24.1649229 6.48647657,25.3610499 9.20319503,25.3610499 C11.4733521,25.3610499 13.37132,24.5389593 13.37132,22.8194445 C13.37132,21.2496101 11.9199135,20.7637247 10.5428793,20.7637247 M15.6778441,4.99103387 C16.4592447,5.99997816 16.8687838,7.19610513 16.8687838,8.50441012 C16.8687838,12.4661695 13.482387,14.7834188 9.05412281,14.7834188 C7.90020549,14.7834188 6.85866569,14.6340674 5.9281929,14.372209 C5.33255925,14.6715697 5.03474243,15.0827795 5.03474243,15.6055093 C5.03474243,16.6894583 6.22568209,17.0263213 7.49099404,17.0263213 L11.1381853,17.0263213 C15.6037995,17.0263213 17.9113065,19.1938903 17.9113065,22.5575861 C17.9116341,26.5568479 14.5622597,28.9491018 9.16650033,28.9491018 C3.24915203,28.9491018 0.495411238,25.9962867 0.122894488,22.6697642 L2.95100758,20.1656612 C1.64834566,19.4557486 0.829922761,18.2224483 0.829595129,16.7272896 C0.829595129,14.9706015 1.98318482,13.8116479 3.32286907,13.064233 C1.94616249,11.980284 1.12741195,10.447952 1.12708432,8.50441012 C1.12708432,4.84135352 4.06691967,2.03821878 8.83035065,2.03821878 C10.4675241,2.03821878 11.9562806,2.37475285 13.1472202,2.97248737 C14.3381599,2.37475285 15.6031442,1.32797727 16.3475224,0.319032986 L18.6923794,2.93531401 C18.0967458,3.57055085 16.9431561,4.39264142 15.6778441,4.99103387" id="Fill-18" fill="#00B5EF" mask="url(#mask-2)"></path>
                        </g>
                        <g id="Group-23">
                            <mask id="mask-4" fill="white">
                                <use xlink:href="#path-3"></use>
                            </mask>
                            <g id="Clip-22"></g>
                            <path d="M25.0554045,0.0224027081 L25.0554045,2.83639339 C12.785286,2.83639339 2.8026889,12.8597137 2.8026889,25.1802162 L-0.00019657876,25.1802162 C-0.00019657876,11.3079725 11.2398493,0.0224027081 25.0554045,0.0224027081" id="Fill-21" fill="#00B5EF" mask="url(#mask-4)"></path>
                        </g>
                        <path d="M25.0554045,5.68716266 L25.0554045,8.48667876 C15.8882817,8.48667876 8.4297559,15.9753021 8.4297559,25.1801505 L5.64161383,25.1801505 C5.64161383,14.4317851 14.3507081,5.68716266 25.0554045,5.68716266" id="Fill-24" fill="#00B5EF"></path>
                        <path d="M25.0554045,11.7132938 L25.0554045,14.5272844 C19.2052206,14.5272844 14.4457212,19.3061999 14.4457212,25.1802491 L11.6431634,25.1802491 C11.6431634,17.7544587 17.6597839,11.7132938 25.0554045,11.7132938" id="Fill-26" fill="#00B5EF"></path>
                        <path d="M31.108844,37.6741437 L27.6511908,27.6457778 L27.3468022,27.6457778 L23.889818,37.6741437 L31.108844,37.6741437 Z M32.4765855,41.7229543 L22.522411,41.7229543 L20.3569039,48 L15,48 L24.4972572,22 L30.5381991,22 L40,48 L34.6427616,48 L32.4765855,41.7229543 Z" id="Fill-1" fill="#00B5EF"></path>
                    </g>
                </g>
            </g>
        </g>
    </g>
</svg>