<?xml version="1.0" encoding="utf-8"?>
<!-- Generator: Adobe Illustrator 23.1.1, SVG Export Plug-In . SVG Version: 6.00 Build 0)  -->
<svg version="1.1" id="Layer_1" xmlns="http://www.w3.org/2000/svg" xmlns:xlink="http://www.w3.org/1999/xlink" x="0px" y="0px"
	 viewBox="0 0 598 170" style="enable-background:new 0 0 598 170;" xml:space="preserve">
<style type="text/css">
	.st0{fill:#00B5EF;}
</style>
<g>
	<g>
		<g>
			<g>
				<path class="st0" d="M100.6,126.9H70.8l-6.5,19.2h-16l28.4-79.5h18.1l28.3,79.5h-16L100.6,126.9z M96.5,114.5L86.2,83.8h-0.9
					l-10.3,30.7H96.5z"/>
				<path class="st0" d="M128.9,73.3c0-5,4.2-8.9,9-8.9c4.8,0,8.7,3.9,8.7,8.9c0,4.7-4,8.7-8.7,8.7S128.9,77.9,128.9,73.3z
					 M130.6,89.3h14.5l0,56.8h-14.5L130.6,89.3z"/>
				<path class="st0" d="M157.6,89.3h13.2l1.4,8.1h0.9c3.5-5.7,7.4-9.2,16.9-9.2h4.1l0,14.5c-2-0.3-4.1-0.5-6.1-0.5
					c-12.5,0-15.8,9.2-15.8,17.4l0,26.5h-14.5L157.6,89.3z"/>
				<path class="st0" d="M240.7,147.2c-24.3,0-39.1-17.2-39.1-40.6c0-24.1,15.7-41.2,39.1-41.2c17.9,0,32.3,9.5,35,27.2h-16.1
					c-2.5-8.2-9.2-13.3-18.9-13.3c-14.2,0-23.7,11.9-23.7,27.4c0,16,10.2,26.7,23.7,26.7c10.3,0,17.6-5.1,20.1-12.8h16.1
					C274.3,137.6,259.1,147.2,240.7,147.2z"/>
				<path class="st0" d="M341.9,135.2l0,10.9h-6.1c-5.3,0-9.5-1.6-11.5-6.8c-3.9,4.9-9.8,8-18.7,8c-11.6,0-20.1-5.5-20.1-16.7
					c0-10.9,8.3-16.2,18.7-17.3l17.7-1.8v-2.4c0-6.2-4-9.3-9.5-9.3c-6.1,0-9.3,3.4-10.2,8.5h-14.5c1.1-11.8,10.2-20.1,24.8-20.1
					c13.3,0,24.1,6.7,24.1,21.9l0,20.8c0,3,1.4,4.3,4.1,4.3H341.9z M321.9,121.5l-12.7,1.4c-5.2,0.6-9.2,2.7-9.2,7.2
					c0,4.5,3.5,6.1,8.1,6.1c6.1,0,13.9-3,13.9-11.9V121.5z"/>
				<path class="st0" d="M347.8,127.9h14c0.8,6.1,5.3,8.5,11.1,8.5c4.4,0,8.3-1.7,8.3-5.8c0-4.3-3.9-6.1-10-7.7l-5.3-1.4
					c-7.6-1.8-16.2-4.9-16.2-16c0-11.4,10-17.4,21.2-17.4c15.3,0,22.4,8.1,23.2,17.4h-14c-0.6-4.1-3.7-6.6-9.1-6.6
					c-4.4,0-7.5,2.2-7.5,5.8c0,4,3.9,5,9.3,6.5l5.3,1.4c9.9,2.5,16.9,7,16.9,17.7c0,11.7-10,16.9-22,16.9
					C357,147.2,348.6,139.6,347.8,127.9z"/>
				<path class="st0" d="M412.7,130.7l0-29.9h-12.2l0-11.5h3.9c6.9,0,9.7-2.5,9.7-8.6l0-6.8h13.2l0,15.5h14.9v11.5h-14.9l0,27.9
					c0,3.2,0.8,7,7.6,7c1.7,0,3.9-0.3,5.6-0.8l0,11c-2.5,0.6-5.9,1.2-10,1.2C414.5,147.2,412.7,136.9,412.7,130.7z"/>
				<path class="st0" d="M448.5,73.3c0-5,4.2-8.9,9-8.9s8.7,3.9,8.7,8.9c0,4.7-4,8.7-8.7,8.7C452.7,82,448.5,77.9,448.5,73.3z
					 M450.2,89.3h14.5l0,56.8h-14.5L450.2,89.3z"/>
				<path class="st0" d="M477.2,89.3h13.3l1.2,6.7h0.9c3.4-4.4,8.2-7.8,16.7-7.8c13.5,0,22.1,8.6,22.1,23.5l0,34.4H517l0-31.5
					c0-9.3-5.3-13.9-12.2-13.9c-6.9,0-13.1,4.4-13.1,14.5l0,30.8h-14.5L477.2,89.3z"/>
				<path class="st0" d="M588.3,97.1c2.4,3.1,3.6,6.7,3.6,10.7c0,12-10.3,19.1-23.9,19.1c-3.5,0-6.7-0.5-9.5-1.2
					c-1.8,0.9-2.7,2.2-2.7,3.7c0,3.3,3.6,4.3,7.5,4.3h11.1c13.6,0,20.7,6.6,20.7,16.8c0,12.2-10.2,19.4-26.7,19.4
					c-18.1,0-26.5-9-27.6-19.1l8.6-7.6c-4-2.2-6.5-5.9-6.5-10.5c0-5.3,3.5-8.9,7.6-11.1c-4.2-3.3-6.7-8-6.7-13.9
					c0-11.1,9-19.7,23.5-19.7c5,0,9.5,1,13.2,2.8c3.6-1.8,7.5-5,9.8-8.1l7.2,8C595.7,92.8,592.2,95.3,588.3,97.1z M572.7,145.1
					h-10.3l-7.5,6.4c1.2,4,5.5,7.6,13.7,7.6c6.9,0,12.7-2.5,12.7-7.7C581.3,146.6,576.9,145.1,572.7,145.1z M578.1,107.6
					c0-5.2-3.7-9-10-9c-6.4,0-10.3,3.8-10.3,9c0,5,4,8.7,10.3,8.7C574.4,116.3,578.1,112.6,578.1,107.6z"/>
			</g>
		</g>
		<g>
			<path class="st0" d="M76.9,0v8.6C39.5,8.6,9,39.1,9,76.5H0.5C0.5,34.3,34.8,0,76.9,0z"/>
		</g>
		<g>
			<path class="st0" d="M76.9,17.3v8.5c-28,0-50.7,22.8-50.7,50.7h-8.5C17.7,43.8,44.3,17.3,76.9,17.3z"/>
		</g>
		<g>
			<path class="st0" d="M76.9,35.6v8.6c-17.9,0-32.4,14.5-32.4,32.4H36C36,53.9,54.4,35.6,76.9,35.6z"/>
		</g>
	</g>
</g>
</svg>
