<?xml version="1.0" encoding="UTF-8"?>
<svg width="95px" height="137px" viewBox="0 0 95 137" version="1.1" xmlns="http://www.w3.org/2000/svg" xmlns:xlink="http://www.w3.org/1999/xlink">
    <!-- Generator: Sketch 55 (78076) - https://sketchapp.com -->
    <title>HabitatMap Logo</title>
    <desc>Created with Sketch.</desc>
    <g id="Layouts" stroke="none" stroke-width="1" fill="none" fill-rule="evenodd">
        <g id="Desktop-—-User-Stories" transform="translate(-1301.000000, -3255.000000)" fill="#FFFFFF">
            <g id="Footer" transform="translate(0.000000, 3150.000000)">
                <g id="HabitatMap-Logo" transform="translate(1301.000000, 105.000000)">
                    <g id="Group-15">
                        <path d="M57.0292686,38.5635602 C42.5832751,38.5635602 34.4940894,44.3400109 28.7160997,51.8504156 L27.1773405,51.8504156 L27.1773405,0.0559261454 L0.00142666414,0.0559261454 L0.00142666414,136.761185 L27.1773405,136.761185 L49.4597963,136.761185 L30.7195437,102.538516 L30.7378866,102.548704 C28.4307668,99.0196694 27.077474,94.8080561 27.077474,90.2765477 C27.077474,77.8597256 37.1456466,67.7942347 49.565777,67.7942347 C61.9859074,67.7942347 72.0540801,77.8597256 72.0540801,90.2765477 C72.0540801,94.8080561 70.7007872,99.0196694 68.3936675,102.548704 L68.4120103,102.538516 L49.6717578,136.761185 L69.9324267,136.761185 L94.583145,136.761185 L94.583145,78.4200515 C94.583145,53.1972354 79.947609,38.5635602 57.0292686,38.5635602" id="Fill-14"></path>
                    </g>
                </g>
            </g>
        </g>
    </g>
</svg>