<?xml version="1.0" encoding="UTF-8"?><svg id="Layer_1" xmlns="http://www.w3.org/2000/svg" viewBox="0 0 110.77 119.51"><defs><style>.cls-1{fill:#fff;}</style></defs><path class="cls-1" d="M56.84,113.45c.42,.1,.81,.22,1.15,.35,1.54,.6,2.41,1.77,3.78,2.61,4.03,2.48,8.99,3.1,8.99,3.1,6.51,0,10.24-4.03,10.24-4.03,2.58-2.18,7.75-2.21,9.96,.35,1.67,1.94,4.76,3.69,7.41,3.69h12.41c-.62-87.37-2.53-83.18-2.53-83.17,.3-.67-1.09-3.37-1.37-4.07-3.59-9.29-10.18-16.97-18.55-22.29-6.67-4.24-14.23-7.02-21.94-8.65C61,.19,55.84-.4,50.38,.31c-2.69,.35-5.36,.84-7.99,1.47-8,1.91-15.8,5.1-22.5,9.94C11.49,17.78,5.4,26.38,2.53,36.34c0,0-1.91-4.3-2.53,83.17H12.41c1.75-.12,3.56-.81,5.04-1.71,1.16-.7,1.79-1.88,2.78-2.76,2.09-1.86,7.63-1.64,9.55,.44,0,0,3.72,4.03,10.24,4.03,0,0,4.96-.62,8.99-3.1,.77-.47,1.31-1.17,1.98-1.75,1.67-1.43,3.78-1.69,5.85-1.2Z"/></svg>