<?xml version="1.0" encoding="UTF-8"?><svg id="Layer_1" xmlns="http://www.w3.org/2000/svg" viewBox="0 0 115.61 127.17"><defs><style>.cls-1{fill:#fff;}</style></defs><path class="cls-1" d="M47.19,87.5c-.26-37.22-1.08-35.43-1.08-35.43,.13-.28-.47-1.43-.58-1.73-1.53-3.96-4.34-7.23-7.9-9.5-2.84-1.81-6.06-2.99-9.35-3.69-2.29-.48-4.49-.74-6.82-.44-1.15,.15-2.28,.36-3.41,.63-3.41,.82-6.73,2.17-9.58,4.23-3.58,2.58-6.17,6.25-7.39,10.49,0,0-.81-1.83-1.08,35.43"/><circle class="cls-1" cx="23.59" cy="15.55" r="15.55"/><path class="cls-1" d="M115.61,127.17c-.26-37.22-1.08-35.43-1.08-35.43,.13-.28-.47-1.43-.58-1.73-1.53-3.96-4.34-7.23-7.9-9.5-2.84-1.81-6.06-2.99-9.35-3.69-2.29-.48-4.49-.74-6.82-.44-1.15,.15-2.28,.36-3.41,.63-3.41,.82-6.73,2.17-9.58,4.23-3.58,2.58-6.17,6.25-7.39,10.49,0,0-.81-1.83-1.08,35.43"/><circle class="cls-1" cx="92.01" cy="55.22" r="15.55"/></svg>